<svg width="146" height="47" xmlns="http://www.w3.org/2000/svg" xmlns:xlink="http://www.w3.org/1999/xlink" xml:space="preserve" overflow="hidden"><defs><clipPath id="clip0"><rect x="7" y="56" width="146" height="47"/></clipPath></defs><g clip-path="url(#clip0)" transform="translate(-7 -56)"><path d="M17.033 13.937 29.3374 13.937 28.8695 16.2266 16.3959 16.2266 16.1968 16.9633C16.0507 17.5805 15.9014 18.2674 15.7488 19.024 14.1859 26.5998 14.7533 27.3165 17.7398 27.3165L26.6993 27.3165 26.1319 29.865 15.928 29.865C10.9505 29.865 8.2726 29.865 10.4727 19.0539 10.6618 18.1081 10.8709 17.1624 11.1098 16.2266 11.4765 14.7858 11.9695 13.3799 12.5831 12.0256 14.4746 8.21287 16.8638 8.21287 20.358 8.21287L30.5618 8.21287 30.0243 10.7614 21.2041 10.7614C19.1534 10.7614 18.0584 11.1197 17.033 13.927M98.5545 8.21287 102.765 8.21287 101.641 13.937 106.071 13.937 105.613 16.2466 101.183 16.2466 101.003 17.1624 99.3708 25.0667C98.9825 26.9482 99.5102 27.655 101.531 27.655L103.303 27.655 102.845 29.865 99.0224 29.865C97.7719 29.9903 96.5357 29.518 95.6874 28.5908 95.0017 27.4896 94.8343 26.1429 95.2295 24.9074L96.9617 16.2266 97.4196 13.937ZM130.41 27.6351 136.383 27.6351 135.866 29.865 127.265 29.865C124.428 29.865 121.839 29.865 123.472 21.901 125.104 13.937 127.653 13.937 130.44 13.937L139.091 13.937 138.633 16.2067 132.66 16.2067C130.251 16.2067 128.838 16.6248 127.733 21.9109 126.628 27.1971 128.041 27.6351 130.41 27.6351ZM92.0738 29.865 87.7135 29.865 92.1036 8.21287 96.4639 8.21287ZM77.8979 19.2032 83.174 19.2032 74.2145 26.4305C73.5475 26.9283 73.7267 27.5953 74.2842 27.6351L81.631 27.6351 83.4727 18.5661C83.8609 16.7144 83.0147 16.2266 81.3124 16.2266L73.1493 16.2266 73.5774 13.937 83.622 13.937C86.9469 13.937 88.5099 15.0719 87.6936 18.9643L85.5134 29.865 72.4425 29.865C71.1969 29.9682 70.0356 29.2268 69.6053 28.0532 69.3266 26.9581 69.6053 25.7536 71.1683 24.5888ZM115.11 24.6187 109.794 24.6187 118.753 17.4312C119.46 16.8936 119.281 16.2266 118.683 16.2266L111.307 16.2266 109.505 25.2956C109.157 27.0975 109.973 27.6351 111.665 27.6351L119.858 27.6351 119.39 29.865 109.326 29.865C106.001 29.865 104.478 28.7699 105.254 24.8377L107.454 13.937 120.525 13.937C121.797 13.8151 122.993 14.562 123.442 15.7588 123.731 16.8936 123.372 18.0683 121.889 19.2729ZM35.9077 13.937 45.8627 13.937 45.4047 16.1769 36.6145 16.1769C36.1974 16.1794 35.8003 16.3563 35.5194 16.6647 35.189 16.9714 35.1698 17.4879 35.4766 17.8183 35.5109 17.8553 35.5486 17.889 35.5891 17.919L36.7937 18.7353 40.1585 21.0747 42.4282 22.6377 42.9956 23.0259C44.8373 24.2703 44.6979 26.321 43.4536 27.8143 42.3269 29.1244 40.6819 29.8742 38.9539 29.865L28.2921 29.865 28.75 27.6351 38.2471 27.6351C38.6655 27.6288 39.0623 27.4484 39.3422 27.1373 39.6587 26.8399 39.6742 26.3422 39.3768 26.0256 39.3448 25.9917 39.3099 25.9605 39.2725 25.9328L34.7031 22.777 31.8659 20.786C30.0243 19.5516 30.1636 17.4909 31.408 16.0076 32.5375 14.6988 34.1788 13.9435 35.9077 13.937ZM57.1019 16.2266 58.3363 16.2266 57.1019 16.2266ZM57.5598 13.937 65.3147 13.937C68.4406 13.937 70.0633 14.4646 70.2126 16.6647L70.2126 17.4412C70.2024 17.937 70.1424 18.4307 70.0334 18.9145L67.8035 29.865 63.5527 29.865 65.9618 18.0982C66.3102 16.3959 65.2849 16.2266 63.8613 16.2266L61.3825 16.2266 58.625 29.865 54.3344 29.865 57.1019 16.2266 52.1244 16.2266 49.337 29.865 45.1161 29.865 48.3415 13.937Z" fill="#154995" transform="matrix(1 0 0 1.00685 7 56.0458)"/><path d="M33.847 36.495 33.847 37.0326C33.847 37.1919 33.847 37.3512 33.847 37.4806 33.854 37.5966 33.854 37.7129 33.847 37.829 33.847 37.8887 33.847 37.9485 33.847 37.9883 33.8352 38.0317 33.8149 38.0723 33.7873 38.1077 33.7654 38.1423 33.7284 38.1644 33.6877 38.1675L33.5882 38.1675 33.3692 38.1675C33.3603 38.1829 33.3603 38.2018 33.3692 38.2172L36.286 38.2172C36.3216 38.2287 36.3598 38.2287 36.3955 38.2172 36.4217 38.1845 36.4419 38.1475 36.4552 38.1077 36.4524 38.0613 36.4524 38.0148 36.4552 37.9684L36.4552 37.7693C36.4596 37.703 36.4596 37.6365 36.4552 37.5702 36.459 37.5205 36.459 37.4705 36.4552 37.4208 36.4616 37.3947 36.4616 37.3674 36.4552 37.3412 36.4552 37.3412 36.4552 37.3412 36.4552 37.3412 36.4552 37.3412 36.4552 37.3412 36.4054 37.3412 36.3971 37.3637 36.3971 37.3884 36.4054 37.4109 36.3851 37.5156 36.3482 37.6165 36.2959 37.7095 36.2499 37.7801 36.1841 37.8355 36.1068 37.8688L35.9077 37.8688 35.6887 37.8688 35.4896 37.8688C35.3571 37.8804 35.2239 37.8804 35.0914 37.8688 35.0063 37.8802 34.9197 37.8663 34.8425 37.829 34.7823 37.7948 34.739 37.7371 34.723 37.6697 34.7109 37.5839 34.7109 37.4967 34.723 37.4109L34.723 37.2616C34.7176 37.192 34.7176 37.1221 34.723 37.0525 34.7282 36.9762 34.7282 36.8998 34.723 36.8235L34.723 35.9575C34.723 35.9575 34.723 35.9575 34.723 35.9575L35.6488 35.9575C35.7146 35.9608 35.7791 35.9778 35.838 36.0072 35.8828 36.0254 35.9234 36.0525 35.9575 36.0869 35.9867 36.1174 36.0073 36.1553 36.0172 36.1964 36.0221 36.236 36.0221 36.2762 36.0172 36.3158 36.0217 36.3522 36.0217 36.389 36.0172 36.4253 36.0172 36.4253 36.0172 36.4253 36.0172 36.4253L36.067 36.4253C36.067 36.4253 36.067 36.4253 36.067 36.4253L36.067 36.4253 36.067 36.3059C36.067 36.3059 36.067 36.2362 36.067 36.1964 36.067 36.1566 36.067 36.1068 36.067 36.067L36.067 35.9575C36.0599 35.8746 36.0599 35.7914 36.067 35.7086 36.0697 35.6622 36.0697 35.6156 36.067 35.5692 36.071 35.5461 36.071 35.5226 36.067 35.4995L36.067 35.4995 36.067 35.4995 36.0072 35.4995C35.9777 35.537 35.935 35.5619 35.8878 35.5692L35.6887 35.5692 34.7429 35.5692C34.7429 35.5692 34.7429 35.5692 34.7429 35.5692 34.7368 35.5532 34.7368 35.5355 34.7429 35.5194L34.7429 33.9963 35.7384 33.9963C35.8211 33.9859 35.9047 33.9859 35.9873 33.9963 36.0375 34.0094 36.0825 34.037 36.1167 34.076 36.1454 34.099 36.1662 34.1303 36.1765 34.1656 36.1806 34.1953 36.1806 34.2255 36.1765 34.2551 36.1765 34.2551 36.1765 34.2551 36.1765 34.3348L36.1765 34.3945C36.1687 34.4136 36.1687 34.4351 36.1765 34.4542 36.1765 34.4542 36.1765 34.4542 36.1765 34.4542 36.1765 34.4542 36.1765 34.4542 36.2262 34.4542 36.2223 34.4245 36.2223 34.3944 36.2262 34.3647 36.2214 34.325 36.2214 34.2848 36.2262 34.2452 36.2204 34.2056 36.2204 34.1654 36.2262 34.1257L36.2262 34.0461C36.2262 33.9465 36.2262 33.8769 36.2262 33.8171 36.2294 33.7774 36.2294 33.7374 36.2262 33.6977 36.2309 33.6781 36.2309 33.6576 36.2262 33.6379L36.2262 33.6379 36.0869 33.6379 35.9674 33.6379 35.8081 33.6379 33.2497 33.6379C33.2497 33.6379 33.2497 33.6379 33.2497 33.6379L33.4687 33.6379 33.5882 33.6379C33.6455 33.644 33.7003 33.6645 33.7474 33.6977 33.788 33.7282 33.819 33.7696 33.837 33.8171 33.8444 33.8733 33.8444 33.9302 33.837 33.9864L33.837 34.1058C33.8423 34.1588 33.8423 34.2121 33.837 34.2651L33.837 36.3955ZM39.1928 35.4 39.1928 34.2054C39.1928 34.2054 39.1928 34.1257 39.1928 34.0859 39.1875 33.9989 39.2084 33.9122 39.2526 33.837 39.2953 33.7797 39.3605 33.7434 39.4317 33.7375L39.5612 33.7375 39.82 33.7375C39.82 33.7375 39.82 33.7375 39.82 33.7375 39.82 33.7375 39.82 33.7375 39.82 33.7375L37.9285 33.7375C37.8929 33.726 37.8547 33.726 37.819 33.7375 37.819 33.7375 37.819 33.7375 37.819 33.7375L38.0281 33.7375 38.1177 33.7375C38.1781 33.7436 38.2362 33.7641 38.2869 33.7972 38.3274 33.8258 38.3558 33.8683 38.3666 33.9167 38.3787 33.9724 38.3787 34.0302 38.3666 34.0859L38.3666 34.3647C38.3666 34.4244 38.3666 34.504 38.3666 34.5837L38.3666 37.0326C38.3666 37.1919 38.3666 37.3512 38.3666 37.4806 38.3666 37.61 38.3666 37.7195 38.3666 37.8091 38.3731 37.8619 38.3731 37.9155 38.3666 37.9684 38.359 38.0133 38.3382 38.0549 38.3068 38.0878 38.2862 38.1236 38.2486 38.1462 38.2073 38.1476L38.1077 38.1476 37.829 38.1476C37.829 38.1476 37.829 38.1476 37.829 38.1476 37.8201 38.163 37.8201 38.1819 37.829 38.1973L40.8155 38.1973 40.935 38.1973 40.9947 38.1476C40.9961 38.1177 40.9961 38.0878 40.9947 38.058L40.9947 37.9285 40.9947 37.7494C40.9947 37.6896 40.9947 37.6299 40.9947 37.5801 40.9991 37.5304 40.9991 37.4805 40.9947 37.4308 40.998 37.4043 40.998 37.3776 40.9947 37.3512 40.9947 37.3512 40.9947 37.2815 40.9947 37.2715 40.9947 37.2616 40.9947 37.2715 40.9947 37.2715 40.9762 37.2609 40.9535 37.2609 40.935 37.2715 40.935 37.2715 40.935 37.2715 40.935 37.3312 40.9433 37.3773 40.9433 37.4245 40.935 37.4706L40.8752 37.6C40.8545 37.6404 40.8276 37.6774 40.7956 37.7095 40.7403 37.7605 40.6762 37.801 40.6064 37.829 40.5205 37.8402 40.4335 37.8402 40.3476 37.829L39.6308 37.829C39.5515 37.8386 39.4713 37.8386 39.3919 37.829 39.3365 37.8148 39.2853 37.7875 39.2426 37.7494 39.19 37.6878 39.1587 37.6111 39.153 37.5303 39.1438 37.3845 39.1438 37.2382 39.153 37.0923 39.153 36.9131 39.153 36.6842 39.153 36.4253ZM42.7169 36.495 42.7169 37.0326C42.7169 37.1919 42.7169 37.3512 42.7169 37.4806 42.7231 37.59 42.7231 37.6997 42.7169 37.8091 42.7169 37.8688 42.7169 37.9285 42.7169 37.9684 42.7093 38.0133 42.6885 38.0549 42.6572 38.0878 42.6353 38.1224 42.5983 38.1445 42.5576 38.1476L42.4581 38.1476 42.2092 38.1476C42.2003 38.163 42.2003 38.1819 42.2092 38.1973L45.136 38.1973C45.1682 38.2087 45.2033 38.2087 45.2355 38.1973 45.2617 38.1646 45.2819 38.1275 45.2952 38.0878 45.2952 38.0878 45.2952 38.0082 45.2952 37.9485L45.2952 37.7494C45.2996 37.6831 45.2996 37.6166 45.2952 37.5503 45.299 37.5006 45.299 37.4506 45.2952 37.4009L45.2952 37.3213 45.2455 37.3213C45.2455 37.3213 45.2455 37.3213 45.2455 37.3213 45.2371 37.3438 45.2371 37.3685 45.2455 37.391 45.2275 37.495 45.194 37.5956 45.1459 37.6896 45.0959 37.7605 45.027 37.8158 44.9468 37.8489L44.7477 37.8489 44.5287 37.8489 44.3396 37.8489C44.2038 37.8605 44.0672 37.8605 43.9314 37.8489 43.8491 37.8444 43.7697 37.8168 43.7024 37.7693 43.645 37.732 43.6027 37.6756 43.583 37.61 43.5708 37.5242 43.5708 37.437 43.583 37.3512L43.583 35.9973C43.583 35.9973 43.583 35.9973 43.583 35.9973L44.5088 35.9973C44.5776 36.002 44.645 36.0189 44.7079 36.047 44.7498 36.0652 44.7872 36.0923 44.8174 36.1267 44.8467 36.1572 44.8673 36.1951 44.8771 36.2362 44.8771 36.2362 44.8771 36.3158 44.8771 36.3557L44.8771 36.4652 44.8771 36.4652 44.8771 36.4652C44.8771 36.4652 44.8771 36.4652 44.8771 36.4652L44.8771 36.3457C44.8826 36.3094 44.8826 36.2725 44.8771 36.2362 44.8771 36.1864 44.8771 36.1466 44.8771 36.1068 44.8771 36.067 44.8771 36.0271 44.8771 35.9973 44.8771 35.9674 44.8771 35.8081 44.8771 35.7484 44.8799 35.702 44.8799 35.6554 44.8771 35.609 44.8812 35.5859 44.8812 35.5624 44.8771 35.5393L44.8771 35.5393 44.8174 35.5393C44.7878 35.5768 44.7451 35.6018 44.6979 35.609L44.4988 35.609 43.5033 35.609C43.5033 35.609 43.5033 35.609 43.5033 35.609 43.4972 35.593 43.4972 35.5753 43.5033 35.5593L43.5033 33.9963 44.4988 33.9963 44.7477 33.9963C44.7938 34.0119 44.835 34.0394 44.8672 34.076 44.8957 34.1012 44.9193 34.1316 44.9369 34.1656 44.9415 34.1952 44.9415 34.2255 44.9369 34.2551 44.9425 34.2814 44.9425 34.3085 44.9369 34.3348L44.9369 34.3945C44.9291 34.4136 44.9291 34.4351 44.9369 34.4542 44.9369 34.4542 44.9369 34.4542 44.9369 34.4542 44.9369 34.4542 44.9369 34.4542 44.9369 34.4542 44.9369 34.4542 44.9369 34.4542 44.9369 34.3647 44.9369 34.2751 44.9369 34.285 44.9369 34.2452 44.931 34.2056 44.931 34.1654 44.9369 34.1257L44.9369 34.0461C44.9369 33.9465 44.9369 33.8769 44.9369 33.8171 44.9345 33.7773 44.9345 33.7375 44.9369 33.6977 44.9369 33.6977 44.9369 33.6977 44.9369 33.6379L44.9369 33.6379 44.7975 33.6379 44.688 33.6379 44.5188 33.6379 42.1296 33.6379C42.1296 33.6379 42.1296 33.6379 42.1296 33.6379L42.3585 33.6379 42.468 33.6379C42.5284 33.644 42.5865 33.6645 42.6373 33.6977 42.6716 33.7317 42.6987 33.7723 42.7169 33.8171 42.729 33.8729 42.729 33.9306 42.7169 33.9864 42.7169 33.9864 42.7169 34.066 42.7169 34.1058L42.7169 36.3955ZM52.2737 36.495 52.2737 37.0326C52.2737 37.1919 52.2737 37.3512 52.2737 37.4806 52.2799 37.59 52.2799 37.6997 52.2737 37.8091L52.2737 37.9783C52.2638 38.0194 52.2432 38.0573 52.214 38.0878 52.1921 38.1224 52.1551 38.1445 52.1144 38.1476L52.0149 38.1476 51.766 38.1476C51.7571 38.163 51.7571 38.1819 51.766 38.1973L53.757 38.1973C53.7632 38.1813 53.7632 38.1636 53.757 38.1476L53.4882 38.1476 53.3787 38.1476C53.3229 38.1483 53.2692 38.1268 53.2294 38.0878 53.1942 38.0585 53.1669 38.0208 53.1497 37.9783L53.1497 37.8091C53.1436 37.6997 53.1436 37.59 53.1497 37.4806 53.1497 37.3512 53.1497 37.1919 53.1497 37.0226L53.1497 36.3955C53.1497 36.3955 53.1497 36.3955 53.1497 36.3955L53.1497 36.3955 53.7172 36.3955 53.757 36.3955 53.8167 36.3955C53.8167 36.3955 53.8167 36.4652 53.9163 36.5149L54.0756 36.7339 54.2647 36.9828 54.4638 37.2516 54.7923 37.6697C54.881 37.7762 54.9775 37.8761 55.081 37.9684 55.165 38.0436 55.2587 38.1072 55.3597 38.1575L55.529 38.2272 55.748 38.2272 56.7435 38.2272C56.7523 38.2118 56.7523 38.1928 56.7435 38.1774 56.7435 38.1774 56.7435 38.1774 56.7435 38.1774L56.6041 38.1774 56.5046 38.1774 56.405 38.1774 56.2457 38.1177C56.1675 38.0841 56.0939 38.0406 56.0267 37.9883 55.9362 37.9281 55.8527 37.858 55.7779 37.7792 55.5887 37.5801 55.3697 37.3512 55.1407 37.0724L54.3543 36.1466C54.5472 36.007 54.7211 35.8431 54.8719 35.6588 54.99 35.5285 55.0813 35.3763 55.1407 35.2108 55.196 35.0681 55.2231 34.916 55.2204 34.7629 55.2354 34.6639 55.2354 34.5632 55.2204 34.4642 55.1919 34.3811 55.1552 34.3011 55.1109 34.2253 55.069 34.1564 55.0188 34.0929 54.9615 34.0361 54.9168 33.9875 54.8668 33.9441 54.8122 33.9067 54.6973 33.8344 54.5735 33.7776 54.4439 33.7375 54.3099 33.7015 54.1735 33.6749 54.0357 33.6578L51.6863 33.6578C51.6863 33.6578 51.6863 33.6578 51.6863 33.6578L51.9153 33.6578 52.0248 33.6578C52.0852 33.6639 52.1433 33.6844 52.1941 33.7176 52.2284 33.7516 52.2555 33.7922 52.2737 33.837 52.2858 33.8928 52.2858 33.9505 52.2737 34.0063 52.2737 34.0063 52.2737 34.0859 52.2737 34.1257L52.2737 36.4154ZM53.0502 34.0063C53.0455 33.9867 53.0455 33.9662 53.0502 33.9465L53.1 33.9465 53.2294 33.9465 53.4384 33.9465 53.6973 33.9465C53.789 33.9683 53.8765 34.0054 53.9561 34.056 54.0458 34.1173 54.1292 34.1874 54.205 34.2651 54.2814 34.3631 54.3388 34.4746 54.3742 34.5936 54.4206 34.7418 54.4442 34.8963 54.4439 35.0515 54.4464 35.1998 54.4263 35.3474 54.3842 35.4896 54.3546 35.5962 54.3075 35.6971 54.2448 35.7882 54.1949 35.8632 54.1306 35.9275 54.0556 35.9774L53.9461 36.0371 53.8068 36.0371 53.4583 36.0371 53.2891 36.0371 53.1398 36.0371C53.124 36.0444 53.1058 36.0444 53.09 36.0371 53.0836 36.0109 53.0836 35.9836 53.09 35.9575ZM59.4911 38.3765C59.8009 38.3761 60.1092 38.3326 60.4069 38.2471 60.6717 38.1643 60.9233 38.0435 61.1536 37.8887 61.3685 37.735 61.5597 37.5505 61.721 37.3412 61.8723 37.1283 61.9898 36.8932 62.0694 36.6443 62.1595 36.3846 62.2099 36.1128 62.2187 35.838 62.2278 35.4974 62.1668 35.1586 62.0395 34.8425 61.9213 34.5633 61.7409 34.3147 61.5119 34.1158 61.2692 33.908 60.9887 33.7491 60.6857 33.6479 60.3283 33.5357 59.9552 33.4819 59.5807 33.4886 59.2851 33.4869 58.9906 33.5238 58.7046 33.5981 58.2443 33.715 57.8266 33.9601 57.5001 34.3049 57.3629 34.4587 57.2458 34.6293 57.1516 34.8126 57.0678 34.9917 57.0011 35.1784 56.9525 35.3701 56.9135 35.55 56.8935 35.7336 56.8928 35.9176 56.8935 36.105 56.9135 36.2918 56.9525 36.4751 56.9995 36.6673 57.0662 36.8541 57.1516 37.0326 57.2458 37.216 57.3629 37.3865 57.5001 37.5403 57.6464 37.7054 57.8177 37.8464 58.0078 37.9584 58.2135 38.0868 58.4388 38.181 58.6748 38.2371 58.9492 38.3218 59.2338 38.3687 59.5209 38.3765ZM59.7598 38.0679C59.5255 38.0705 59.2927 38.0301 59.073 37.9485 58.8705 37.8701 58.6821 37.7591 58.5155 37.6199 58.3509 37.4796 58.2127 37.311 58.1073 37.1222 57.9873 36.9252 57.8999 36.71 57.8485 36.4851 57.7875 36.2477 57.7574 36.0034 57.7589 35.7584 57.7519 35.4894 57.7855 35.2209 57.8584 34.962 57.9049 34.7619 57.9895 34.5726 58.1073 34.4045 58.2042 34.2637 58.3297 34.1449 58.4757 34.056 58.61 33.9688 58.7581 33.9048 58.9137 33.8669 59.0602 33.8308 59.2108 33.814 59.3617 33.8171 59.6215 33.8135 59.8792 33.8644 60.1182 33.9665 60.3467 34.0768 60.5527 34.2287 60.7255 34.4144 60.9038 34.6267 61.0421 34.8696 61.1336 35.1312 61.2282 35.4343 61.2785 35.7495 61.283 36.067 61.2825 36.3251 61.2524 36.5822 61.1934 36.8335 61.1532 37.0259 61.0827 37.2108 60.9843 37.381 60.91 37.5166 60.8123 37.638 60.6956 37.7394 60.5937 37.8254 60.4797 37.8958 60.3572 37.9485 60.2549 37.9908 60.1479 38.0208 60.0386 38.038ZM63.9609 36.495C63.9609 36.6842 63.9609 36.8634 63.9609 37.0326L63.9609 37.4806C63.9609 37.6133 63.9609 37.7228 63.9609 37.8091 63.9609 37.8688 63.9609 37.9285 63.9609 37.9684 63.9533 38.0133 63.9325 38.0549 63.9011 38.0878 63.8805 38.1236 63.8429 38.1462 63.8016 38.1476L63.702 38.1476 63.483 38.1476C63.4742 38.163 63.4742 38.1819 63.483 38.1973L64.7075 38.1973 65.0559 38.1973 65.4342 38.1973 65.8025 38.1973C66.0767 38.1989 66.3502 38.1722 66.6188 38.1177 66.8307 38.0814 67.0378 38.0212 67.2361 37.9385 67.3919 37.9168 67.5453 37.8802 67.694 37.829 67.8048 37.7645 67.9053 37.6839 67.9926 37.5901 68.0895 37.4938 68.1794 37.3907 68.2614 37.2815 68.3457 37.1569 68.4222 37.0272 68.4904 36.8932 68.5554 36.7381 68.6086 36.5784 68.6497 36.4154 68.6653 36.2332 68.6653 36.05 68.6497 35.8679 68.6526 35.6424 68.6225 35.4176 68.5601 35.2009 68.5082 35.0154 68.4312 34.8378 68.3311 34.6733 68.2442 34.535 68.1405 34.408 68.0225 34.295 67.8872 34.1533 67.729 34.0355 67.5546 33.9465 67.3876 33.8564 67.2105 33.7863 67.027 33.7375 66.8445 33.6857 66.6581 33.6491 66.4695 33.628L65.922 33.628 63.3636 33.628C63.3636 33.628 63.3636 33.628 63.3636 33.628L63.5925 33.628 63.702 33.628C63.7625 33.6341 63.8205 33.6546 63.8713 33.6877 63.909 33.7189 63.9367 33.7604 63.9509 33.8072 63.963 33.8629 63.963 33.9207 63.9509 33.9764 63.9509 33.9764 63.9509 34.056 63.9509 34.0959L63.9509 34.4742C63.9509 34.5737 63.9509 34.6832 63.9509 34.8126L63.9509 36.3855ZM64.7672 35.3004 64.7672 34.9321C64.7672 34.8027 64.7672 34.6932 64.7672 34.5737L64.7672 34.066C64.7601 34.0399 64.7601 34.0124 64.7672 33.9864 64.7866 33.9803 64.8075 33.9803 64.827 33.9864L64.8966 33.9864 65.255 33.9864C65.3942 33.9771 65.534 33.9771 65.6731 33.9864 65.8311 33.9992 65.9877 34.0258 66.141 34.066 66.309 34.1143 66.4722 34.1776 66.6288 34.2551 66.8022 34.3426 66.9629 34.4531 67.1066 34.5837 67.186 34.6543 67.2562 34.7346 67.3157 34.8226 67.399 34.9264 67.4692 35.0401 67.5247 35.1611 67.5895 35.3015 67.6395 35.4484 67.6741 35.5991 67.7158 35.7752 67.7359 35.9557 67.7338 36.1366 67.749 36.3388 67.749 36.5418 67.7338 36.7439 67.7014 36.9234 67.6444 37.0976 67.5646 37.2616 67.4809 37.4194 67.3697 37.5611 67.2361 37.6797 67.1065 37.781 66.9664 37.8677 66.8179 37.9385 66.6609 38.0026 66.4973 38.0493 66.3301 38.0779 66.1317 38.0991 65.9314 38.0991 65.7328 38.0779 65.5871 38.0895 65.4406 38.0895 65.2948 38.0779 65.1984 38.0557 65.1048 38.0222 65.0161 37.9783 64.962 37.9527 64.9144 37.9153 64.8767 37.8688 64.8697 37.8293 64.8697 37.7889 64.8767 37.7494 64.8718 37.6897 64.8718 37.6298 64.8767 37.5702 64.872 37.5105 64.872 37.4506 64.8767 37.391 64.8767 37.391 64.8767 37.2715 64.8767 37.162L64.8767 36.7339C64.8767 36.5548 64.8767 36.3656 64.8767 36.1466ZM72.3828 38.3765C72.6926 38.3761 73.0009 38.3326 73.2986 38.2471 73.5635 38.1643 73.815 38.0435 74.0453 37.8887 74.2602 37.735 74.4514 37.5505 74.6127 37.3412 74.764 37.1283 74.8815 36.8932 74.9611 36.6443 75.0411 36.383 75.0814 36.1113 75.0806 35.838 75.0897 35.4974 75.0286 35.1586 74.9014 34.8425 74.7831 34.5633 74.6028 34.3147 74.3738 34.1158 74.1311 33.908 73.8506 33.7491 73.5475 33.6479 73.1901 33.5357 72.817 33.4819 72.4425 33.4886 72.147 33.4869 71.8525 33.5238 71.5665 33.5981 71.1062 33.715 70.6885 33.9601 70.3619 34.3049 70.2247 34.4587 70.1077 34.6293 70.0135 34.8126 69.9253 34.9899 69.8584 35.1771 69.8144 35.3701 69.7754 35.55 69.7554 35.7336 69.7547 35.9176 69.7554 36.105 69.7754 36.2918 69.8144 36.4751 69.8614 36.6673 69.9281 36.8541 70.0135 37.0326 70.1077 37.216 70.2247 37.3865 70.3619 37.5403 70.5083 37.7054 70.6796 37.8464 70.8696 37.9584 71.0754 38.0868 71.3007 38.181 71.5366 38.2371 71.8206 38.3245 72.1156 38.3714 72.4127 38.3765ZM72.6516 38.0679C72.4172 38.0705 72.1844 38.0301 71.9647 37.9485 71.7622 37.8701 71.5738 37.7591 71.4072 37.6199 71.2426 37.4796 71.1045 37.311 70.999 37.1222 70.879 36.9252 70.7916 36.71 70.7402 36.4851 70.6792 36.2477 70.6491 36.0034 70.6506 35.7584 70.6436 35.4894 70.6772 35.2209 70.7502 34.962 70.7967 34.7619 70.8812 34.5726 70.999 34.4045 71.0959 34.2637 71.2214 34.1449 71.3674 34.056 71.5027 33.9705 71.6504 33.9067 71.8054 33.8669 71.9519 33.8308 72.1026 33.814 72.2534 33.8171 72.5132 33.8135 72.7709 33.8644 73.0099 33.9665 73.2384 34.0768 73.4444 34.2287 73.6172 34.4144 73.7955 34.6267 73.9339 34.8696 74.0254 35.1312 74.1199 35.4343 74.1703 35.7495 74.1747 36.067 74.1743 36.3251 74.1442 36.5822 74.0851 36.8335 74.045 37.0259 73.9744 37.2108 73.876 37.381 73.8019 37.5166 73.7041 37.638 73.5873 37.7394 73.4854 37.8254 73.3714 37.8958 73.2489 37.9485 73.1466 37.9908 73.0397 38.0208 72.9303 38.038ZM76.4743 37.6697C76.479 37.7393 76.479 37.8092 76.4743 37.8788 76.4558 37.9418 76.429 38.002 76.3947 38.058 76.359 38.1085 76.3058 38.1441 76.2453 38.1575L76.1358 38.1575 75.9765 38.1575 75.9765 38.1575C75.9633 38.1752 75.9633 38.1995 75.9765 38.2172L77.4997 38.2172C77.5129 38.1995 77.5129 38.1752 77.4997 38.1575L77.4997 38.1575 77.3205 38.1575 77.1612 38.1575C77.1095 38.1466 77.0615 38.1226 77.0218 38.0878 76.9813 38.0576 76.9588 38.0089 76.9621 37.9584 76.9567 37.9121 76.9567 37.8653 76.9621 37.819 76.9621 37.819 76.9621 37.7195 76.9621 37.6697L77.3006 35.2009 77.3006 35.2009C77.3503 35.2905 77.4001 35.4 77.4499 35.5095 77.4997 35.619 77.5693 35.7384 77.6191 35.8479 77.6689 35.9575 77.7286 36.067 77.7784 36.1665L77.9078 36.4253C77.9359 36.4727 77.9592 36.5227 77.9775 36.5747 78.0044 36.6226 78.0277 36.6726 78.0472 36.724 78.0472 36.7837 78.1268 36.8634 78.1766 36.9529 78.2264 37.0425 78.2761 37.1321 78.3259 37.2416L78.4852 37.5303 78.6445 37.829 78.744 38.0181 78.8834 38.2471C78.8834 38.2969 78.9531 38.3267 78.973 38.3267 78.9929 38.3267 78.973 38.3267 79.0327 38.3267L79.1024 38.2272 79.2219 38.0082 80.6454 35.1909 80.6454 35.1909 81.0436 37.9186C81.0474 37.9816 81.0474 38.0447 81.0436 38.1077 81.0547 38.1331 81.0547 38.162 81.0436 38.1874L80.9939 38.1874C80.9939 38.1874 80.9939 38.1874 80.9939 38.1874L81.1432 38.1874 82.6265 38.1874C82.6371 38.1689 82.6371 38.1462 82.6265 38.1276L82.6265 38.1276 82.3876 38.1276 82.1486 38.0779C82.089 38.0566 82.0347 38.0226 81.9894 37.9783 81.9441 37.9163 81.9134 37.8448 81.8998 37.7693 81.8665 37.6655 81.8432 37.5588 81.8301 37.4507L81.2328 33.618C81.2411 33.5719 81.2411 33.5247 81.2328 33.4787 81.2328 33.4787 81.2328 33.4289 81.1631 33.4289 81.138 33.4164 81.1085 33.4164 81.0835 33.4289 81.057 33.4632 81.0337 33.4999 81.0138 33.5384L79.2418 37.0724 77.4598 33.5782 77.3902 33.4587C77.3756 33.4342 77.3551 33.4136 77.3304 33.399L77.3304 33.399C77.3084 33.3883 77.2827 33.3883 77.2607 33.399 77.2537 33.4385 77.2537 33.479 77.2607 33.5185ZM108.938 38.0679C108.704 38.0705 108.471 38.0301 108.251 37.9485 108.047 37.8729 107.858 37.7617 107.693 37.6199 107.526 37.48 107.384 37.3114 107.275 37.1222 107.163 36.9226 107.079 36.7082 107.026 36.4851 106.965 36.2477 106.935 36.0034 106.937 35.7584 106.932 35.4902 106.961 35.2224 107.026 34.962 107.076 34.7613 107.164 34.572 107.285 34.4045 107.382 34.2637 107.507 34.1449 107.653 34.056 107.784 33.9689 107.929 33.905 108.081 33.8669 108.484 33.7745 108.905 33.8093 109.286 33.9665 109.518 34.0718 109.724 34.2244 109.893 34.4144 110.075 34.6242 110.214 34.8678 110.301 35.1312 110.406 35.4319 110.456 35.7487 110.451 36.067 110.453 36.3247 110.427 36.5818 110.371 36.8335 110.331 37.0259 110.261 37.2108 110.162 37.381 110.081 37.5149 109.981 37.6358 109.863 37.7394 109.764 37.8229 109.653 37.8932 109.535 37.9485 109.429 37.991 109.319 38.021 109.206 38.038ZM108.669 38.3765C108.978 38.3761 109.287 38.3326 109.585 38.2471 109.849 38.1643 110.101 38.0435 110.331 37.8887 110.545 37.7375 110.733 37.5526 110.889 37.3412 111.047 37.1309 111.168 36.8953 111.247 36.6443 111.327 36.383 111.368 36.1113 111.367 35.838 111.378 35.4962 111.313 35.1564 111.177 34.8425 111.062 34.5643 110.885 34.3158 110.66 34.1158 110.415 33.906 110.13 33.747 109.824 33.6479 109.47 33.5351 109.1 33.4812 108.728 33.4886 108.433 33.4862 108.138 33.5231 107.852 33.5981 107.61 33.6576 107.378 33.7551 107.166 33.8868 106.97 33.9961 106.796 34.1375 106.648 34.3049 106.511 34.4587 106.394 34.6293 106.299 34.8126 106.211 34.9899 106.144 35.1771 106.1 35.3701 106.054 35.5488 106.03 35.7329 106.031 35.9176 106.03 36.1057 106.054 36.293 106.1 36.4751 106.143 36.6686 106.21 36.856 106.299 37.0326 106.394 37.216 106.511 37.3865 106.648 37.5403 106.793 37.7029 106.96 37.8436 107.146 37.9584 107.355 38.0868 107.584 38.181 107.823 38.2371 108.106 38.3251 108.402 38.372 108.699 38.3765ZM103.462 38.3765 103.781 38.3765 104.109 38.3765 104.398 38.3765 104.637 38.3168 104.717 38.3168C104.717 38.3168 104.717 38.3168 104.776 38.3168 104.779 38.287 104.779 38.257 104.776 38.2272 104.779 38.1741 104.779 38.121 104.776 38.0679 104.776 38.0082 104.776 37.9385 104.776 37.8688L104.776 37.6697 104.776 37.5005 104.776 37.2317C104.782 37.2088 104.782 37.1849 104.776 37.162L104.776 37.162C104.772 37.1951 104.772 37.2285 104.776 37.2616 104.783 37.3045 104.783 37.3481 104.776 37.391 104.759 37.4403 104.736 37.487 104.707 37.5303L104.607 37.6697C104.522 37.7599 104.42 37.8341 104.308 37.8887 104.185 37.9406 104.054 37.9741 103.92 37.9883 103.751 37.9994 103.582 37.9994 103.413 37.9883 103.258 37.9874 103.104 37.9673 102.955 37.9285 102.792 37.8828 102.635 37.8193 102.487 37.7394 102.329 37.6583 102.185 37.5542 102.059 37.4308 101.916 37.3064 101.792 37.1622 101.69 37.0027 101.584 36.8319 101.5 36.6478 101.441 36.4552 101.38 36.2349 101.35 36.007 101.352 35.7783 101.353 35.5815 101.37 35.3851 101.402 35.1909 101.437 35.0002 101.501 34.8157 101.591 34.6434 101.68 34.4665 101.802 34.3078 101.949 34.1755 102.051 34.0944 102.161 34.0243 102.278 33.9665 102.403 33.9042 102.537 33.8606 102.676 33.837 102.843 33.8037 103.013 33.7871 103.184 33.7873 103.371 33.7859 103.558 33.8059 103.741 33.847 103.898 33.8695 104.053 33.913 104.199 33.9764 104.31 34.0275 104.415 34.0946 104.508 34.1755 104.585 34.2541 104.649 34.3448 104.697 34.4443 104.736 34.5391 104.755 34.6405 104.756 34.7429 104.748 34.7757 104.748 34.8097 104.756 34.8425 104.756 34.8425 104.756 34.8425 104.756 34.8425 104.774 34.8557 104.798 34.8557 104.816 34.8425 104.823 34.8096 104.823 34.7758 104.816 34.7429L104.816 34.6434C104.821 34.5838 104.821 34.5238 104.816 34.4642L104.816 34.2751C104.811 34.2154 104.811 34.1555 104.816 34.0959 104.816 34.0262 104.816 33.9665 104.816 33.9266 104.82 33.8903 104.82 33.8536 104.816 33.8171 104.821 33.7975 104.821 33.777 104.816 33.7574 104.816 33.7574 104.816 33.7574 104.816 33.7574L104.737 33.7574 104.428 33.7076 104.089 33.6479 103.801 33.6479 103.502 33.6479 103.144 33.6479C102.853 33.646 102.563 33.6727 102.278 33.7275 102.045 33.7749 101.818 33.8484 101.601 33.9465 101.412 34.045 101.234 34.1654 101.073 34.3049 100.929 34.4337 100.801 34.581 100.695 34.7429 100.598 34.8859 100.518 35.0395 100.456 35.2009 100.406 35.3433 100.37 35.49 100.346 35.6389 100.337 35.7582 100.337 35.878 100.346 35.9973 100.336 36.1531 100.336 36.3094 100.346 36.4652 100.375 36.6279 100.419 36.7878 100.476 36.943 100.541 37.1047 100.624 37.2583 100.725 37.4009 100.976 37.759 101.32 38.0413 101.72 38.2172 101.958 38.3225 102.209 38.3961 102.467 38.4362 102.823 38.4576 103.181 38.4375 103.532 38.3765ZM97.8377 36.495 97.8377 37.0525C97.8377 37.2217 97.8377 37.3711 97.8377 37.5104 97.8439 37.6198 97.8439 37.7295 97.8377 37.8389 97.8467 37.9117 97.8467 37.9852 97.8377 38.058 97.8076 38.1076 97.7561 38.1407 97.6983 38.1476L97.5988 38.1476 97.3798 38.1476C97.3709 38.163 97.3709 38.1819 97.3798 38.1973L99.3708 38.1973C99.3797 38.1819 99.3797 38.163 99.3708 38.1476L99.0622 38.1476 98.9527 38.1476C98.9041 38.1629 98.8519 38.1629 98.8034 38.1476 98.7716 38.1213 98.7475 38.0868 98.7337 38.048 98.728 37.9984 98.728 37.9483 98.7337 37.8987 98.7337 37.8091 98.7337 37.6996 98.7337 37.5602L98.7337 34.2054C98.7337 34.2054 98.7337 34.1257 98.7337 34.0859 98.7179 34.006 98.7248 33.9232 98.7536 33.847 98.7962 33.7897 98.8615 33.7533 98.9328 33.7474L99.0323 33.7474 99.2016 33.7474C99.2016 33.7474 99.2016 33.7474 99.2016 33.7474L97.34 33.7474 97.34 33.7474 97.559 33.7474 97.6784 33.7474C97.7436 33.762 97.8008 33.8012 97.8377 33.8569 97.8717 33.9324 97.8919 34.0133 97.8974 34.0959 97.8974 34.0959 97.8974 34.1755 97.8974 34.2153L97.8974 36.505ZM93.6765 36.495 93.6765 37.0326C93.6765 37.1919 93.6765 37.3512 93.6765 37.4806 93.6765 37.61 93.6765 37.7195 93.6765 37.8091 93.6699 37.8882 93.6497 37.9657 93.6168 38.038 93.5983 38.0964 93.548 38.139 93.4874 38.1476L93.3779 38.1476 93.1688 38.1476C93.1688 38.1476 93.1688 38.1476 93.1688 38.1476 93.16 38.163 93.16 38.1819 93.1688 38.1973L95.1598 38.1973C95.164 38.181 95.164 38.1639 95.1598 38.1476 95.1598 38.1476 95.1598 38.1476 95.1598 38.1476L94.8512 38.1476 94.7517 38.1476C94.7036 38.166 94.6504 38.166 94.6023 38.1476 94.5691 38.1126 94.5421 38.0722 94.5227 38.0281L94.5725 37.829C94.5661 37.7163 94.5661 37.6032 94.5725 37.4905 94.5725 37.3611 94.5725 37.2018 94.5725 37.0425L94.5725 33.9465 95.3988 33.9465C95.5498 33.9511 95.6998 33.9711 95.8467 34.0063 95.9345 34.0323 96.0159 34.0764 96.0856 34.1357 96.1317 34.1765 96.1602 34.2336 96.1653 34.295L96.1653 34.3647C96.1623 34.3978 96.1623 34.4311 96.1653 34.4642 96.1653 34.4642 96.1653 34.4642 96.225 34.4642 96.2847 34.4642 96.225 34.4642 96.225 34.4642 96.2263 34.441 96.2263 34.4177 96.225 34.3945L96.225 34.2452C96.2205 34.1756 96.2205 34.1057 96.225 34.0361L96.225 33.847C96.225 33.7873 96.225 33.7375 96.225 33.6977 96.225 33.6578 96.225 33.618 96.225 33.5981L96.1653 33.5981 96.0558 33.5981 95.8666 33.5981 92.5815 33.5981 92.3724 33.5981 92.243 33.5981 92.1534 33.5981 92.0937 33.5981C92.0937 33.5981 92.0937 33.5981 92.0937 33.5981L92.0937 33.6877 92.0937 33.7673 92.0937 33.9266C92.089 33.9895 92.089 34.0529 92.0937 34.1158 92.0937 34.1855 92.0937 34.2352 92.0937 34.295 92.0917 34.3281 92.0917 34.3614 92.0937 34.3945 92.0865 34.4206 92.0865 34.4481 92.0937 34.4742 92.0937 34.4742 92.0937 34.4742 92.0937 34.4742 92.0937 34.4742 92.0937 34.4742 92.0937 34.4742L92.0937 34.4742C92.0851 34.4449 92.0851 34.4138 92.0937 34.3846 92.1151 34.3385 92.1419 34.2951 92.1733 34.2551 92.2031 34.209 92.2442 34.1712 92.2928 34.1456 92.3568 34.1209 92.4237 34.1041 92.4919 34.0959L92.8005 34.0959 93.796 34.0959ZM89.2067 38.3765 89.5552 38.3765C89.6734 38.3605 89.7901 38.3338 89.9036 38.2969 90.0227 38.2582 90.1363 38.2047 90.2421 38.1376 90.3842 38.052 90.5091 37.9406 90.6104 37.8091 90.6947 37.6985 90.7588 37.5737 90.7995 37.4407 90.838 37.3183 90.8581 37.1908 90.8593 37.0625 90.8604 36.9209 90.8403 36.7799 90.7995 36.6443 90.7589 36.5083 90.6949 36.3802 90.6104 36.2661 90.5184 36.1257 90.4079 35.9985 90.2819 35.8878 90.1279 35.7377 89.9613 35.6013 89.7841 35.4796L89.595 35.3303C89.4473 35.2282 89.3075 35.1151 89.1769 34.9918 89.0852 34.9152 89.0106 34.8203 88.9579 34.7131 88.9192 34.6288 88.8988 34.5371 88.8981 34.4443 88.8945 34.3237 88.9294 34.2052 88.9977 34.1058 89.0637 34.0079 89.1572 33.9316 89.2665 33.8868 89.3939 33.8271 89.534 33.7998 89.6746 33.8072 89.7896 33.7841 89.9081 33.7841 90.023 33.8072 90.1078 33.8282 90.1863 33.8691 90.252 33.9266L90.3914 34.056C90.4319 34.1078 90.4653 34.1648 90.4909 34.2253 90.4995 34.2747 90.4995 34.3252 90.4909 34.3746 90.4936 34.4044 90.4936 34.4344 90.4909 34.4642 90.4909 34.4642 90.4909 34.5339 90.4909 34.5438 90.5041 34.5741 90.5393 34.5879 90.5696 34.5747 90.5834 34.5687 90.5944 34.5577 90.6004 34.5438 90.6066 34.4976 90.6066 34.4508 90.6004 34.4045 90.6004 34.2452 90.6004 34.1158 90.6004 34.0063 90.6046 33.93 90.6046 33.8536 90.6004 33.7773 90.6046 33.7376 90.6046 33.6976 90.6004 33.6578 90.6057 33.6417 90.6057 33.6242 90.6004 33.6081L90.5308 33.6081 90.1923 33.5483C90.0169 33.5308 89.8401 33.5308 89.6647 33.5483 89.4555 33.5456 89.2473 33.5758 89.0475 33.6379 88.8723 33.6808 88.709 33.7625 88.5696 33.8769 88.4403 33.9748 88.3348 34.1007 88.261 34.2452 88.1875 34.3936 88.15 34.5574 88.1515 34.723 88.1514 34.8865 88.1818 35.0486 88.2411 35.2009 88.3188 35.3751 88.4229 35.5363 88.5497 35.6787 88.721 35.8669 88.9112 36.037 89.1171 36.1864L89.4258 36.4054C89.5413 36.4945 89.6511 36.5909 89.7543 36.6941 89.8242 36.7716 89.8876 36.8548 89.9434 36.943 89.9886 37.0124 90.0191 37.0903 90.033 37.172 90.0427 37.248 90.0427 37.3249 90.033 37.4009 90.0323 37.4873 90.0119 37.5724 89.9733 37.6498 89.9364 37.7362 89.8822 37.8142 89.814 37.8788 89.7372 37.9509 89.6454 38.0054 89.5452 38.038 89.4223 38.0886 89.2899 38.1123 89.157 38.1077 89.0252 38.1088 88.8941 38.0887 88.7687 38.048 88.6998 37.9856 88.6425 37.9114 88.5995 37.829 88.496 37.7271 88.4207 37.6002 88.3805 37.4607 88.3805 37.4607 88.3805 37.3512 88.3805 37.2914 88.3756 37.2417 88.3756 37.1918 88.3805 37.1421 88.3853 37.1191 88.3853 37.0954 88.3805 37.0724L88.3805 37.0724C88.3627 37.0592 88.3385 37.0592 88.3207 37.0724 88.3143 37.1119 88.3143 37.1524 88.3207 37.1919 88.3207 37.1919 88.3207 37.2616 88.3207 37.3113 88.3207 37.3611 88.3207 37.4308 88.3207 37.5104 88.3207 37.5901 88.3207 37.6598 88.3207 37.7494L88.3207 38.1077C88.3139 38.127 88.3139 38.1481 88.3207 38.1675L88.4004 38.1675C88.5418 38.2223 88.6887 38.2624 88.8384 38.2869 88.9688 38.3264 89.1019 38.3563 89.2366 38.3765ZM86.2202 32.5927C86.2235 32.6158 86.2235 32.6393 86.2202 32.6623 86.2202 32.6623 86.2202 32.6623 86.2202 32.6623L86.2202 32.6623 86.1306 32.6623 85.9813 32.6623 85.7225 32.6623 85.4039 32.7121 85.0953 32.7121 84.8365 32.7121 84.7768 32.7121 84.7768 32.7121 84.7768 32.7121 84.7768 32.7121 84.8465 32.7121 85.0854 32.6225 85.3641 32.4931C85.4634 32.4493 85.5597 32.3994 85.6528 32.3438 85.7395 32.2931 85.8227 32.2366 85.9017 32.1746L86.0112 32.075 86.0112 32.0252C86.0112 32.0252 86.0112 32.0252 86.0112 32.085 86.0112 32.1447 86.0709 32.2442 86.0908 32.3139 86.1467 32.4018 86.1934 32.4953 86.2302 32.5927ZM84.1197 36.495 84.1197 37.0326C84.1197 37.1919 84.1197 37.3512 84.1197 37.4806 84.1197 37.61 84.1197 37.7195 84.1197 37.8091 84.1263 37.8619 84.1263 37.9155 84.1197 37.9684 84.1122 38.0133 84.0914 38.0549 84.06 38.0878 84.0394 38.1236 84.0018 38.1462 83.9604 38.1476L83.8609 38.1476 83.622 38.1476C83.622 38.1476 83.622 38.1476 83.622 38.1476 83.6131 38.163 83.6131 38.1819 83.622 38.1973L86.5089 38.1973C86.5412 38.2087 86.5763 38.2087 86.6085 38.1973 86.6416 38.1698 86.6629 38.1306 86.6682 38.0878 86.6713 38.0414 86.6713 37.9948 86.6682 37.9485 86.6736 37.8821 86.6736 37.8157 86.6682 37.7494L86.6682 37.5503 86.6682 37.4009C86.6733 37.3746 86.6733 37.3476 86.6682 37.3213L86.6682 37.3213C86.6682 37.3213 86.6682 37.3213 86.6682 37.3213 86.6682 37.3213 86.6682 37.3213 86.6682 37.391 86.6503 37.495 86.6167 37.5956 86.5687 37.6896 86.5187 37.7605 86.4497 37.8158 86.3696 37.8489L86.1804 37.8489 85.9614 37.8489 85.7623 37.8489C85.6298 37.8607 85.4966 37.8607 85.3641 37.8489 85.2785 37.8457 85.1956 37.8181 85.1252 37.7693 85.0678 37.7339 85.0281 37.6761 85.0157 37.61 84.9983 37.5246 84.9983 37.4366 85.0157 37.3512L85.0157 35.9973 85.0157 35.9973 85.9415 35.9973C86.0105 36.0007 86.0781 36.0176 86.1406 36.047 86.184 36.0625 86.222 36.0902 86.2501 36.1267 86.2794 36.1572 86.3 36.1951 86.3098 36.2362 86.3098 36.2362 86.3098 36.3158 86.3098 36.3557 86.3044 36.392 86.3044 36.4288 86.3098 36.4652L86.3098 36.4652 86.3098 36.4652C86.3098 36.4652 86.3098 36.4652 86.3098 36.4652L86.3098 36.4652C86.3057 36.4421 86.3057 36.4186 86.3098 36.3955L86.3098 36.286C86.3144 36.243 86.3144 36.1996 86.3098 36.1566 86.3143 36.1202 86.3143 36.0834 86.3098 36.047 86.3098 35.9375 86.3098 35.8579 86.3098 35.7982 86.3098 35.7384 86.3098 35.6887 86.3098 35.6588 86.3139 35.6357 86.3139 35.6122 86.3098 35.5891L86.3098 35.5891 86.2501 35.5891C86.2205 35.6265 86.1778 35.6515 86.1306 35.6588L85.9415 35.6588 84.946 35.6588C84.946 35.6588 84.946 35.6588 84.946 35.6588 84.9398 35.6428 84.9398 35.6251 84.946 35.609L84.946 33.9963 85.9415 33.9963C86.0242 33.9868 86.1077 33.9868 86.1904 33.9963 86.2394 34.012 86.2837 34.0393 86.3198 34.076 86.342 34.1042 86.3619 34.1342 86.3795 34.1656 86.3842 34.1952 86.3842 34.2255 86.3795 34.2551 86.3852 34.2814 86.3852 34.3085 86.3795 34.3348 86.3842 34.3544 86.3842 34.3749 86.3795 34.3945 86.3795 34.3945 86.3795 34.3945 86.3795 34.4542L86.3795 34.4542C86.3795 34.4542 86.3795 34.4542 86.3795 34.4542 86.3857 34.4247 86.3857 34.3942 86.3795 34.3647 86.3844 34.325 86.3844 34.2848 86.3795 34.2452 86.3795 34.2452 86.3795 34.1556 86.3795 34.1257L86.3795 34.0461C86.3727 33.9699 86.3727 33.8933 86.3795 33.8171 86.3795 33.8171 86.3795 33.7275 86.3795 33.6977 86.3795 33.6678 86.3795 33.6977 86.3795 33.6379L86.3795 33.6379 86.2401 33.6379 86.1306 33.6379 85.9614 33.6379 83.4926 33.6379C83.4926 33.6379 83.4926 33.6379 83.4926 33.6379L83.7215 33.6379 83.831 33.6379C83.8915 33.644 83.9495 33.6645 84.0003 33.6977 84.038 33.7288 84.0657 33.7703 84.0799 33.8171 84.0921 33.8729 84.0921 33.9306 84.0799 33.9864 84.0848 34.026 84.0848 34.0661 84.0799 34.1058L84.0799 34.2651C84.0799 34.3248 84.0799 34.4045 84.0799 34.4941L84.0799 36.3955ZM113.815 38.3765 114.164 38.3765C114.285 38.3595 114.405 38.3328 114.522 38.2969 114.64 38.2542 114.753 38.2009 114.861 38.1376 114.998 38.0491 115.12 37.9381 115.219 37.8091 115.307 37.6988 115.373 37.5741 115.418 37.4407 115.432 37.315 115.432 37.1882 115.418 37.0625 115.419 36.9209 115.399 36.7799 115.359 36.6443 115.322 36.5087 115.261 36.3806 115.179 36.2661 115.088 36.1257 114.977 35.9985 114.851 35.8878 114.693 35.7425 114.526 35.6063 114.353 35.4796L114.164 35.3502C114.017 35.2482 113.876 35.135 113.746 35.0117 113.66 34.9318 113.59 34.8374 113.537 34.733 113.498 34.6486 113.478 34.557 113.477 34.4642 113.475 34.3452 113.506 34.228 113.567 34.1257 113.632 34.0278 113.726 33.9515 113.835 33.9067 114.084 33.8218 114.353 33.8218 114.602 33.9067 114.685 33.9321 114.762 33.9726 114.831 34.0262L114.96 34.1556C115.004 34.2073 115.041 34.2641 115.07 34.3248 115.074 34.3745 115.074 34.4245 115.07 34.4742 115.074 34.5039 115.074 34.534 115.07 34.5638 115.062 34.5896 115.062 34.6175 115.07 34.6434 115.077 34.5972 115.077 34.5502 115.07 34.504 115.07 34.3447 115.07 34.2153 115.07 34.1058 115.07 33.9963 115.07 33.9366 115.07 33.8769 115.07 33.8171 115.07 33.7873 115.07 33.7574 115.079 33.742 115.079 33.7231 115.07 33.7076L115 33.7076 114.662 33.6479C114.486 33.6299 114.309 33.6299 114.134 33.6479 113.925 33.6461 113.717 33.6764 113.517 33.7375 113.344 33.7844 113.18 33.8656 113.039 33.9764 112.916 34.0774 112.814 34.2028 112.74 34.3447 112.667 34.4932 112.629 34.6569 112.631 34.8226 112.631 34.986 112.661 35.1481 112.72 35.3004 112.79 35.4786 112.896 35.641 113.029 35.7783 113.2 35.9664 113.39 36.1365 113.596 36.286L113.895 36.505C114.013 36.5914 114.123 36.688 114.224 36.7937 114.366 36.9199 114.467 37.0865 114.512 37.2715 114.522 37.3475 114.522 37.4244 114.512 37.5005 114.531 37.5824 114.531 37.6674 114.512 37.7494 114.425 37.9323 114.266 38.0722 114.074 38.1376 113.951 38.1882 113.819 38.2119 113.686 38.2073 113.555 38.207 113.423 38.1868 113.298 38.1476 113.032 38.0654 112.828 37.8502 112.76 37.5801 112.754 37.5239 112.754 37.4671 112.76 37.4109 112.75 37.3616 112.75 37.3108 112.76 37.2616 112.765 37.2386 112.765 37.2149 112.76 37.1919 112.741 37.1812 112.719 37.1812 112.701 37.1919 112.694 37.2314 112.694 37.2718 112.701 37.3113L112.701 37.4308C112.701 37.4905 112.701 37.5503 112.701 37.6299 112.706 37.7094 112.706 37.7893 112.701 37.8688L112.701 38.1177C112.695 38.1539 112.695 38.191 112.701 38.2272 112.694 38.2465 112.694 38.2676 112.701 38.2869 112.701 38.2869 112.701 38.2869 112.78 38.2869 112.921 38.3443 113.068 38.3844 113.218 38.4064 113.417 38.4192 113.618 38.4092 113.815 38.3765ZM48.1125 36.495 48.1125 37.0326C48.1125 37.1919 48.1125 37.3512 48.1125 37.4806 48.1187 37.59 48.1187 37.6997 48.1125 37.8091 48.1058 37.8882 48.0856 37.9657 48.0528 38.038 48.0343 38.0964 47.984 38.139 47.9234 38.1476L47.8238 38.1476 47.6048 38.1476C47.6048 38.1476 47.6048 38.1476 47.6048 38.1476 47.5959 38.163 47.5959 38.1819 47.6048 38.1973L49.5958 38.1973C49.6047 38.1819 49.6047 38.163 49.5958 38.1476 49.5958 38.1476 49.5958 38.1476 49.5958 38.1476L49.2872 38.1476 49.1876 38.1476C49.1396 38.166 49.0864 38.166 49.0383 38.1476 49.0051 38.1126 48.9781 38.0722 48.9587 38.0281L48.9587 37.8688C48.9523 37.7561 48.9523 37.643 48.9587 37.5303 48.9587 37.4009 48.9587 37.2416 48.9587 37.0824L48.9587 33.9465 49.7849 33.9465C49.9359 33.9511 50.086 33.9711 50.2329 34.0063 50.3207 34.0323 50.4021 34.0764 50.4718 34.1357 50.5179 34.1765 50.5464 34.2336 50.5515 34.295L50.5515 34.3647C50.5448 34.3975 50.5448 34.4314 50.5515 34.4642 50.5515 34.4642 50.5515 34.4642 50.6112 34.4642 50.6709 34.4642 50.6112 34.4642 50.6112 34.4642 50.6125 34.441 50.6125 34.4177 50.6112 34.3945L50.6112 34.2452C50.6067 34.1756 50.6067 34.1057 50.6112 34.0361L50.6112 33.847C50.6156 33.7973 50.6156 33.7473 50.6112 33.6977 50.6112 33.6977 50.6112 33.618 50.6112 33.5981L50.6112 33.5981 50.5515 33.5981 50.442 33.5981 50.2528 33.5981 46.9975 33.5981 46.7885 33.5981 46.6591 33.5981 46.5695 33.5981 46.5098 33.5981C46.5098 33.5981 46.5098 33.5981 46.5098 33.5981 46.5069 33.6279 46.5069 33.6579 46.5098 33.6877L46.5098 33.7673 46.5098 33.9266C46.5098 33.9864 46.5098 34.056 46.5098 34.1158L46.5098 34.295C46.5078 34.3281 46.5078 34.3614 46.5098 34.3945 46.5026 34.4206 46.5026 34.4481 46.5098 34.4742 46.5098 34.4742 46.5098 34.4742 46.5098 34.4742L46.5098 34.4742C46.5012 34.4449 46.5012 34.4138 46.5098 34.3846 46.5313 34.3385 46.5579 34.2951 46.5894 34.2551 46.6192 34.209 46.6603 34.1712 46.7088 34.1456 46.7729 34.1209 46.8398 34.1041 46.9079 34.0959L47.2166 34.0959 48.2121 34.0959Z" fill="#B0AFB1" transform="matrix(1 0 0 1.00685 7 56.0458)"/></g></svg>