<svg width="764" height="163" xmlns="http://www.w3.org/2000/svg" xmlns:xlink="http://www.w3.org/1999/xlink" xml:space="preserve" overflow="hidden"><defs><clipPath id="clip0"><rect x="680" y="214" width="764" height="163"/></clipPath><linearGradient x1="30.3092" y1="76.6245" x2="310.848" y2="76.6245" gradientUnits="userSpaceOnUse" spreadMethod="pad" id="fill1"><stop offset="0" stop-color="#F1355D"/><stop offset="0.4" stop-color="#F43D56"/><stop offset="1" stop-color="#FF5246"/></linearGradient></defs><g clip-path="url(#clip0)" transform="translate(-680 -214)"><path d="M384.251 70.7116 376.649 70.7116 376.229 65.7645C373.096 69.6278 368.753 71.5521 363.261 71.5521 356.927 71.5521 351.678 69.5615 347.579 65.5802 343.48 61.54 341.43 56.5929 341.43 50.621 341.43 44.2878 343.48 39.0385 347.645 34.9982 351.803 30.899 357.053 28.8494 363.327 28.8494 368.517 28.8494 373.037 30.2355 376.834 33.0076 380.631 35.7208 382.983 39.5177 383.83 44.2878L373.096 44.2878C371.592 40.2476 368.451 38.198 363.57 38.198 360.009 38.198 357.178 39.3408 355.003 41.5747 352.836 43.8086 351.744 46.7651 351.744 50.3777 351.744 53.6954 352.828 56.4675 355.003 58.7015 357.237 60.9354 360.068 62.0782 363.629 62.0782 368.392 62.0782 371.894 59.9696 374.062 55.804L362.302 55.686 362.302 47.6645 384.258 47.6645 384.258 70.7042Z" fill="#18006A" transform="matrix(1.00471 0 0 1 680 214.168)"/><path d="M409.274 50.2671C404.872 50.4514 401.554 51.6532 399.203 53.9461L399.203 70.7116 389.375 70.7116 389.375 41.4641 399.203 41.4641 399.203 44.5975C402.034 42.1866 405.351 40.9775 409.274 40.9775L409.274 50.2671Z" fill="#18006A" transform="matrix(1.00471 0 0 1 680 214.168)"/><path d="M442.502 70.7116 432.734 70.7116 432.734 68.78C430.264 70.6526 427.61 71.6111 424.712 71.6111 420.974 71.6111 417.959 70.402 415.666 67.9911 413.373 65.5802 412.23 62.3215 412.23 58.1633L412.23 41.4567 421.999 41.4567 421.999 56.6519C421.999 60.6921 424.048 62.8007 427.366 62.8007 429.239 62.8007 430.986 61.8349 432.734 59.9032L432.734 41.4493 442.502 41.4493 442.502 70.6969Z" fill="#18006A" transform="matrix(1.00471 0 0 1 680 214.168)"/><path d="M475.672 45.2021C478.503 48.1585 479.956 51.7785 479.956 56.0547 479.956 60.3308 478.511 63.9582 475.672 66.9073 472.841 69.8638 469.398 71.3088 465.417 71.3088 462.46 71.3088 459.806 70.5863 457.454 69.1339L457.454 84.27 447.626 84.27 447.626 41.4641 457.454 41.4641 457.454 42.9681C459.806 41.5231 462.46 40.7932 465.417 40.7932 469.398 40.7932 472.834 42.2382 475.672 45.1947ZM470.364 56.0547C470.364 51.9555 467.407 48.7557 463.485 48.7557 461.074 48.7557 459.084 49.6625 457.454 51.4689L457.454 60.6331C459.025 62.3805 461.015 63.2873 463.485 63.2873 467.407 63.2873 470.364 60.1539 470.364 56.0473Z" fill="#18006A" transform="matrix(1.00471 0 0 1 680 214.168)"/><path d="M509.69 45.1431C512.646 47.9742 514.15 51.6532 514.15 56.0621 514.15 60.4709 512.646 64.2605 509.69 67.2169 506.733 70.1734 502.936 71.6185 498.351 71.6185 493.765 71.6185 489.909 70.1734 486.893 67.2169 483.937 64.2605 482.433 60.5225 482.433 56.0621 482.433 51.6016 483.937 47.9816 486.893 45.1431 489.909 42.2456 493.706 40.8006 498.351 40.8006 502.995 40.8006 506.733 42.2456 509.69 45.1431ZM504.927 56.121C504.927 52.2577 502.214 49.2423 498.351 49.2423 494.487 49.2423 491.715 52.2577 491.715 56.121 491.715 59.9843 494.428 63.1767 498.351 63.1767 502.273 63.1767 504.927 60.1613 504.927 56.121Z" fill="#18006A" transform="matrix(1.00471 0 0 1 680 214.168)"/><path d="M351.848 99.6126 370.058 99.6126 370.058 108.298 351.848 108.298 351.848 115.412 372.653 115.412 372.653 124.282 341.651 124.282 341.651 83.2673 372.653 83.2673 372.653 92.1367 351.848 92.1367 351.848 99.6126Z" fill="#18006A" transform="matrix(1.00471 0 0 1 680 214.168)"/><path d="M407.032 124.282 397.263 124.282 397.263 122.778C394.912 124.282 392.257 125.012 389.242 125.012 385.261 125.012 381.825 123.567 378.987 120.61 376.155 117.654 374.703 114.034 374.703 109.691 374.703 105.349 376.148 101.788 378.987 98.8975 381.818 95.941 385.261 94.496 389.242 94.496 392.257 94.496 394.912 95.2185 397.263 96.7299L397.263 81.4684 407.032 81.4684 407.032 124.289ZM397.263 114.27 397.263 105.164C395.634 103.358 393.585 102.451 391.233 102.451 389.242 102.451 387.613 103.174 386.286 104.56 384.958 105.946 384.295 107.693 384.295 109.684 384.295 113.783 387.31 116.983 391.233 116.983 393.643 116.983 395.634 116.076 397.263 114.27Z" fill="#18006A" transform="matrix(1.00471 0 0 1 680 214.168)"/><path d="M418.851 114.27C419.271 116.739 421.085 117.949 424.402 117.949 426.998 117.949 428.627 117.167 428.627 115.899 428.627 114.815 427.661 114.152 425.796 113.849L419.883 112.825C414.575 111.918 411.257 108.902 411.257 104.021 411.257 97.9906 416.447 94.2527 424.343 94.2527 427.963 94.2527 431.097 95.0342 433.692 96.6635 436.346 98.2929 437.791 100.822 438.035 104.383L429.291 104.383C429.106 102.215 427.182 101.124 424.343 101.124 421.992 101.124 420.664 102.031 420.664 103.233 420.664 104.434 421.689 105.164 423.739 105.526L429.165 106.432C435.255 107.457 438.329 110.532 438.329 115.302 438.329 118.494 437.061 120.971 434.466 122.66 431.93 124.348 428.612 125.196 424.572 125.196 416.433 125.196 410.704 121.635 410.158 114.218L418.843 114.277Z" fill="#18006A" transform="matrix(1.00471 0 0 1 680 214.168)"/><path d="M467.997 98.7058C470.954 101.537 472.458 105.216 472.458 109.625 472.458 114.034 470.954 117.823 467.997 120.78 465.041 123.736 461.244 125.181 456.658 125.181 452.072 125.181 448.216 123.736 445.201 120.78 442.244 117.823 440.74 114.085 440.74 109.625 440.74 105.164 442.252 101.544 445.201 98.7058 448.216 95.8083 452.013 94.3633 456.658 94.3633 461.303 94.3633 465.041 95.8083 467.997 98.7058ZM463.234 109.684C463.234 105.82 460.521 102.805 456.658 102.805 452.795 102.805 450.023 105.82 450.023 109.684 450.023 113.547 452.736 116.739 456.658 116.739 460.58 116.739 463.234 113.724 463.234 109.684Z" fill="#18006A" transform="matrix(1.00471 0 0 1 680 214.168)"/><path d="M502.619 97.8063C504.912 100.217 506.055 103.476 506.055 107.575L506.055 124.282 496.286 124.282 496.286 109.146C496.286 105.105 494.296 102.997 490.919 102.997 489.046 102.997 487.299 103.963 485.611 105.894L485.611 124.289 475.783 124.289 475.783 95.0415 485.611 95.0415 485.611 96.9732C488.08 95.1005 490.735 94.1421 493.632 94.1421 497.311 94.1421 500.327 95.3512 502.619 97.8211Z" fill="#18006A" transform="matrix(1.00471 0 0 1 680 214.168)"/><path d="M553.653 119.637 560.104 127.238 552.864 133.815 544.784 124.348C542.978 124.894 540.987 125.13 538.812 125.13 532.663 125.13 527.473 123.08 523.315 118.981 519.156 114.823 517.099 109.75 517.099 103.786 517.099 97.8211 519.149 92.7486 523.315 88.6494 527.473 84.4912 532.663 82.4342 538.812 82.4342 544.961 82.4342 550.151 84.4838 554.31 88.6494 558.468 92.7486 560.584 97.8137 560.584 103.786 560.584 110.119 558.291 115.427 553.646 119.644ZM527.421 103.778C527.421 107.096 528.505 109.868 530.68 112.22 532.848 114.513 535.568 115.656 538.819 115.656 542.071 115.656 544.791 114.513 546.959 112.22 549.126 109.868 550.218 107.096 550.218 103.778 550.218 100.46 549.134 97.6883 546.959 95.3954 544.791 93.0435 542.071 91.9008 538.819 91.9008 535.568 91.9008 532.848 93.0435 530.68 95.3954 528.512 97.6883 527.421 100.46 527.421 103.778Z" fill="#18006A" transform="matrix(1.00471 0 0 1 680 214.168)"/><path d="M594.904 124.282 585.135 124.282 585.135 122.35C582.665 124.223 580.011 125.181 577.113 125.181 573.375 125.181 570.36 123.972 568.067 121.561 565.774 119.15 564.631 115.892 564.631 111.733L564.631 95.0268 574.4 95.0268 574.4 110.222C574.4 114.262 576.45 116.371 579.767 116.371 581.64 116.371 583.387 115.405 585.135 113.473L585.135 95.0194 594.904 95.0194 594.904 124.267Z" fill="#18006A" transform="matrix(1.00471 0 0 1 680 214.168)"/><path d="M629.039 112.522 608.233 112.522C609.14 115.656 611.367 117.226 614.81 117.226 616.919 117.226 618.371 116.503 619.27 115.117L628.98 115.117C627.535 121.148 621.925 124.945 614.685 124.945 609.922 124.945 606.059 123.5 603.102 120.662 600.146 117.823 598.701 114.152 598.701 109.625 598.701 105.098 600.146 101.485 602.984 98.6468 605.882 95.8157 609.678 94.3633 614.323 94.3633 618.607 94.3633 622.16 95.7493 624.999 98.4625 627.83 101.176 629.224 104.678 629.224 109.02 629.224 110.591 629.165 111.733 629.039 112.522ZM608.174 106.794 620.059 106.794C619.514 103.535 617.589 101.906 614.272 101.906 610.954 101.906 608.963 103.535 608.182 106.794Z" fill="#18006A" transform="matrix(1.00471 0 0 1 680 214.168)"/><path d="M632.416 84.9557C632.416 81.8223 634.952 79.404 638.145 79.404 641.337 79.404 643.873 81.8149 643.873 84.9557 643.873 88.0965 641.278 90.441 638.145 90.441 635.011 90.441 632.416 88.0891 632.416 84.9557ZM643.092 124.274 633.323 124.274 633.323 95.0268 643.092 95.0268 643.092 124.274Z" fill="#18006A" transform="matrix(1.00471 0 0 1 680 214.168)"/><path d="M668.299 103.837C663.897 104.021 660.58 105.223 658.228 107.516L658.228 124.282 648.4 124.282 648.4 95.0342 658.228 95.0342 658.228 98.1676C661.059 95.7567 664.377 94.5476 668.299 94.5476L668.299 103.837Z" fill="#18006A" transform="matrix(1.00471 0 0 1 680 214.168)"/><path d="M696.64 98.7058C699.596 101.537 701.1 105.216 701.1 109.625 701.1 114.034 699.596 117.823 696.64 120.78 693.683 123.736 689.886 125.181 685.3 125.181 680.714 125.181 676.859 123.736 673.843 120.78 670.887 117.823 669.383 114.085 669.383 109.625 669.383 105.164 670.887 101.544 673.843 98.7058 676.859 95.8083 680.656 94.3633 685.3 94.3633 689.945 94.3633 693.683 95.8083 696.64 98.7058ZM691.877 109.684C691.877 105.82 689.164 102.805 685.3 102.805 681.437 102.805 678.665 105.82 678.665 109.684 678.665 113.547 681.378 116.739 685.3 116.739 689.223 116.739 691.877 113.724 691.877 109.684Z" fill="#18006A" transform="matrix(1.00471 0 0 1 680 214.168)"/><path d="M716.841 116.194 730.112 116.194 730.112 124.274 702.855 124.274 702.855 119.512 716.605 103.166 703.098 103.166 703.098 95.0268 730.119 95.0268 730.119 100.217 716.848 116.201Z" fill="#18006A" transform="matrix(1.00471 0 0 1 680 214.168)"/><path d="M120.949 94.2232C120.949 96.7078 119.961 99.0892 118.207 100.851L99.2661 119.792C96.6046 122.453 93.0657 123.92 89.2982 123.92L61.2967 123.92C57.5292 123.92 53.9903 122.453 51.3288 119.792L34.4895 102.945C31.8132 100.276 30.3166 96.6488 30.3166 92.8666L30.3166 60.1539C30.3166 56.3865 31.7837 52.8476 34.4453 50.186L51.3361 33.2951C53.9977 30.6336 57.5366 29.1664 61.304 29.1664L94.8204 29.1664C98.6763 29.1664 102.363 30.7294 105.046 33.4942L116.105 44.9366C116.164 45.003 116.164 45.1062 116.105 45.1652L101.979 59.2987C101.913 59.3577 101.81 59.3577 101.751 59.2987L92.2399 49.6257C92.2399 49.6257 92.1662 49.5741 92.1219 49.5741L63.9951 49.5741C63.9508 49.5741 63.9066 49.5888 63.8771 49.6257L50.7832 62.7196C50.7832 62.7196 50.7316 62.7933 50.7316 62.8376L50.7316 90.2493 50.7758 90.3672 63.8697 103.461 63.9877 103.513 86.6219 103.513C86.6662 103.513 86.7104 103.498 86.7399 103.461L100.549 89.3572 75.7029 89.4973 75.5776 69.0896 114.085 68.8832C117.875 68.8611 120.957 71.9281 120.957 75.7103L120.957 94.2232ZM207.261 49.5741 164.861 49.5741 151.671 62.7638 151.671 65.9488 186.883 65.9931 186.861 86.4007 151.671 86.3565 151.671 90.3083 164.861 103.498 207.261 103.498 207.261 123.913 162.244 123.913C158.476 123.913 154.937 122.446 152.276 119.784L135.385 102.893C132.723 100.232 131.256 96.693 131.256 92.9256L131.256 60.1465C131.256 56.3865 132.723 52.8402 135.385 50.1786L152.276 33.2878C154.937 30.6262 158.476 29.159 162.244 29.159L207.261 29.159 207.261 49.5667ZM310.848 93.0288C310.848 96.7889 309.381 100.335 306.719 102.997L306.564 103.152 305.709 104.176 310.833 109.3 296.796 124.097 291.052 118.619 289.836 119.888C287.174 122.549 283.635 124.016 279.868 124.016L246.86 124.016C243.093 124.016 239.554 122.549 236.892 119.888L220.002 102.997C217.34 100.335 215.873 96.7962 215.873 93.0288L215.873 60.2497C215.873 56.4897 217.34 52.9434 220.002 50.2818L236.892 33.391C239.554 30.7294 243.093 29.2623 246.86 29.2623L280.443 29.2623C284.233 29.2623 287.919 30.8179 290.558 33.5384L306.048 49.5077 306.963 50.5178C309.477 53.1498 310.855 56.5929 310.855 60.2497L310.855 93.0288ZM249.47 49.6699 236.28 62.8597 236.28 90.4041 249.47 103.594 276.299 103.594 263.419 90.7138 277.848 76.3075 290.433 88.8927 290.433 62.7196 277.759 49.6625 249.463 49.6625Z" fill="url(#fill1)" transform="matrix(1.00471 0 0 1 680 214.168)"/></g></svg>